# xmcd
#
# Track frame offsets:
#	150
#	20560
#	40894
#	70760
#	81877
#	106496
#	118008
#	144193
#	159196
#	180791
#	213960
#	234899
#	249316
#	268961
#	284241
#	303973
#	325012
#	329604
#
# Disc length: 4809 seconds
#
# Revision: 0
# Processed by: cddbd v1.5.2PL0 Copyright (c) Steve Scherf et al.
# Submitted via: EasyCDDAExtractor 8.2.3.1
#
DISCID=f512c712
DTITLE=Various Artist - Black Pure Blues CD-4
DYEAR=2004
DGENRE=Blues
TTITLE0=MIGHTY MO RODGERS - The Kennedy Song
TTITLE1=HOODOO KINGS - Luberta
TTITLE2=MICHAEL BURKS - Make It Rain
TTITLE3=KEB' MO' - Stand Up (And Be Strong)
TTITLE4=ROBERT CRAY - Any Time
TTITLE5=LUTHER "Guitar" JUNIOR JOHNSON - Crazy Over You
TTITLE6=JAMES COTTON - Feel Like Goin' Home
TTITLE7=PINETOP PERKINS - What's the Matter with You
TTITLE8=LUCKY PETERSON - Double Dealing
TTITLE9=LARRY McCRAY - Love Gone Bad
TTITLE10=B.B.KING - I'm in the Wrong Business
TTITLE11=BUDDY GUY - Trouble Blues
TTITLE12=JAKE SAMPSON - Shadow At Midnight
TTITLE13=BILL SIMS - When Do I Get to Be Called a Man
TTITLE14=TROY TURNER - Lonely Cafe
TTITLE15=The BONE SHAKERS - I'm Living All of My Days for You
TTITLE16=TRhe BONE SHAKERS - Queenie's Groove
TTITLE17=MIGHTY SAM McCLAIN - A Soul That's Been Abused-
EXTD=
EXTT0=
EXTT1=
EXTT2=
EXTT3=
EXTT4=
EXTT5=
EXTT6=
EXTT7=
EXTT8=
EXTT9=
EXTT10=
EXTT11=
EXTT12=
EXTT13=
EXTT14=
EXTT15=
EXTT16=
EXTT17=
PLAYORDER=
